<svg width="83" height="83" viewBox="0 0 83 83" fill="none" xmlns="http://www.w3.org/2000/svg">
<path d="M48.091 82.1814C52.6753 82.1814 57.2147 81.2785 61.4501 79.5241C65.6855 77.7698 69.5338 75.1984 72.7754 71.9568C76.017 68.7152 78.5884 64.8668 80.3428 60.6314C82.0971 56.3961 83.0001 51.8566 83.0001 47.2723L48.091 47.2723L48.091 82.1814Z" fill="#00E1F0"/>
<path opacity="0.1" d="M27 54.0001C30.5457 54.0001 34.0567 53.3017 37.3325 51.9449C40.6082 50.588 43.5847 48.5992 46.0919 46.092C48.5991 43.5848 50.5879 40.6084 51.9448 37.3326C53.3016 34.0568 54 30.5458 54 27.0001L27 27.0001L27 54.0001Z" fill="#E8F2FF"/>
</svg>
