<svg width="21" height="12" viewBox="0 0 21 12" fill="none" xmlns="http://www.w3.org/2000/svg">
<path d="M9.39157 10.0991C9.4449 10.0541 9.49907 10.0075 9.54907 9.95829C6.7649 12.69 2.2249 11.415 1.16074 7.56246V7.55662C-0.266763 2.31496 5.7524 -1.66671 9.5474 1.99996C9.62657 2.08412 14.8691 7.67496 14.5357 7.31912H14.5507C15.3332 8.12579 16.4649 8.03746 17.1382 7.33246C17.8624 6.57579 17.8882 5.34079 17.1774 4.57162C16.0549 3.27912 13.8507 4.24496 14.0616 6.16079L12.7999 4.87579L11.3366 3.47662C11.6382 2.87746 12.0341 2.35329 12.5299 1.89996C12.4766 1.94579 12.4224 1.99329 12.3724 2.04079C15.1674 -0.700877 19.7041 0.604123 20.7607 4.43996V4.44496C22.1916 9.68579 16.1657 13.6675 12.3741 10.0008C12.2966 9.91746 7.0574 4.29162 7.38907 4.64829L7.38574 4.63579C7.3724 4.63579 7.3724 4.62329 7.3724 4.62329C6.55074 3.77579 5.43657 3.90329 4.7849 4.59746C4.0599 5.35412 4.0349 6.58912 4.7474 7.34662C5.82074 8.60912 8.0724 7.67329 7.86074 5.71912C7.9424 5.80329 10.7682 8.70412 10.5882 8.51996C10.1307 9.43246 9.61907 9.85162 9.39157 10.0991Z" fill="#3734A9"/>
</svg>
