<svg width="99" height="16" viewBox="0 0 99 16" fill="none" xmlns="http://www.w3.org/2000/svg">
<path d="M13.3 15H10.3L9.46 12.48H3.88L3.04 15H0.06L4.96 0.999999H8.38L13.3 15ZM6.68 4.18L4.76 9.9H8.6L6.68 4.18ZM25.3194 15H22.3394L19.5194 10.14H17.4194V15H14.6594V0.999999H20.2594C21.5527 0.999999 22.6527 1.45333 23.5594 2.36C24.466 3.26667 24.9194 4.36 24.9194 5.64C24.9194 6.50667 24.6727 7.31333 24.1794 8.06C23.686 8.79333 23.0327 9.34667 22.2194 9.72L25.3194 15ZM20.2594 3.58H17.4194V7.72H20.2594C20.7794 7.72 21.226 7.52 21.5994 7.12C21.9727 6.70667 22.1594 6.21333 22.1594 5.64C22.1594 5.06667 21.9727 4.58 21.5994 4.18C21.226 3.78 20.7794 3.58 20.2594 3.58ZM36.7245 15.28C35.3512 15.28 34.1912 14.9733 33.2445 14.36C32.2979 13.7467 31.6245 12.9 31.2245 11.82L33.5845 10.44C34.1312 11.8667 35.2045 12.58 36.8045 12.58C37.5512 12.58 38.1112 12.4467 38.4845 12.18C38.8579 11.9133 39.0445 11.5533 39.0445 11.1C39.0445 10.6067 38.8245 10.2267 38.3845 9.96C37.9445 9.68 37.1579 9.38 36.0245 9.06C34.7979 8.68667 33.8312 8.25333 33.1245 7.76C32.2445 7.10667 31.8045 6.14667 31.8045 4.88C31.8045 3.6 32.2512 2.59333 33.1445 1.86C34.0379 1.1 35.1245 0.719999 36.4045 0.719999C37.5245 0.719999 38.5179 0.993332 39.3845 1.54C40.2512 2.08667 40.9245 2.86 41.4045 3.86L39.0845 5.2C38.5245 4 37.6312 3.4 36.4045 3.4C35.8445 3.4 35.3979 3.53333 35.0645 3.8C34.7312 4.05333 34.5645 4.38667 34.5645 4.8C34.5645 5.24 34.7445 5.6 35.1045 5.88C35.5045 6.16 36.2112 6.45333 37.2245 6.76L38.1845 7.08C38.3579 7.13333 38.6579 7.24667 39.0845 7.42C39.4845 7.56667 39.7779 7.70667 39.9645 7.84C40.6179 8.24 41.0579 8.65333 41.2845 9.08C41.6312 9.64 41.8045 10.3 41.8045 11.06C41.8045 12.3533 41.3312 13.38 40.3845 14.14C39.4379 14.9 38.2179 15.28 36.7245 15.28ZM51.467 6.56V0.999999H54.207V15H51.467V9.2H46.267V15H43.507V0.999999H46.267V6.56H51.467ZM68.8078 15H65.8078L64.9678 12.48H59.3878L58.5478 15H55.5678L60.4678 0.999999H63.8878L68.8078 15ZM62.1878 4.18L60.2678 9.9H64.1078L62.1878 4.18ZM75.7272 7.8L81.1072 15H77.9272L72.9272 8.44V15H70.1672V0.999999H72.9272V7.18L77.7272 0.999999H80.9072L75.7272 7.8ZM82.4719 15V0.999999H85.2319V15H82.4719ZM98.4834 15H95.5034L92.6834 10.14H90.5834V15H87.8234V0.999999H93.4234C94.7168 0.999999 95.8168 1.45333 96.7234 2.36C97.6301 3.26667 98.0834 4.36 98.0834 5.64C98.0834 6.50667 97.8368 7.31333 97.3434 8.06C96.8501 8.79333 96.1968 9.34667 95.3834 9.72L98.4834 15ZM93.4234 3.58H90.5834V7.72H93.4234C93.9434 7.72 94.3901 7.52 94.7634 7.12C95.1368 6.70667 95.3234 6.21333 95.3234 5.64C95.3234 5.06667 95.1368 4.58 94.7634 4.18C94.3901 3.78 93.9434 3.58 93.4234 3.58Z" fill="black"/>
</svg>
