<?xml version="1.0" encoding="utf-8"?>
<!-- Generator: Adobe Illustrator 24.3.0, SVG Export Plug-In . SVG Version: 6.00 Build 0)  -->
<svg version="1.1" id="Layer_1" xmlns="http://www.w3.org/2000/svg" xmlns:xlink="http://www.w3.org/1999/xlink" x="0px" y="0px"
	 viewBox="0 0 138 22" style="enable-background:new 0 0 138 22;" xml:space="preserve">
<style type="text/css">
	.st0{fill:#F62B54;}
	.st1{fill:#FFCC00;}
	.st2{fill:#00CA72;}
	.st3{fill:#333333;}
</style>
<path class="st0" d="M4.5,21.9c-1.6,0-3.2-0.9-4-2.3c-0.8-1.4-0.8-3.2,0.1-4.5L8.9,2.3c0.9-1.4,2.4-2.2,4-2.2c1.6,0,3.1,1,3.9,2.4
	c0.8,1.4,0.7,3.2-0.2,4.5L8.4,19.8C7.6,21.2,6.1,22,4.5,21.9z"/>
<path class="st1" d="M18.6,21.9c-1.7,0-3.2-0.9-4-2.3c-0.8-1.4-0.8-3.2,0.1-4.5l8.2-12.8c0.8-1.4,2.4-2.3,4-2.2c1.7,0,3.2,1,3.9,2.4
	c0.8,1.5,0.6,3.2-0.3,4.6l-8.2,12.8C21.6,21.2,20.1,21.9,18.6,21.9z"/>
<path class="st2" d="M32.3,21.9c2.3,0,4.2-1.8,4.2-4.1s-1.9-4.1-4.2-4.1c-2.3,0-4.2,1.8-4.2,4.1S30,21.9,32.3,21.9z"/>
<path class="st0" d="M-26.5-6.2c-1,0-2-0.5-2.5-1.4c-0.5-0.9-0.5-2,0.1-2.8l5.1-8c0.5-0.9,1.5-1.4,2.5-1.4c1,0,2,0.6,2.4,1.5
	c0.5,0.9,0.4,2-0.2,2.8l-5.1,8C-24.6-6.6-25.5-6.1-26.5-6.2z"/>
<path class="st1" d="M-17.7-6.2c-1,0-2-0.6-2.5-1.4c-0.5-0.9-0.5-2,0.1-2.8l5.1-8c0.5-0.9,1.5-1.4,2.5-1.4c1,0,2,0.6,2.5,1.5
	c0.5,0.9,0.4,2-0.2,2.9l-5.1,8C-15.8-6.6-16.7-6.1-17.7-6.2z"/>
<path class="st2" d="M-9.1-6.1c1.5,0,2.6-1.2,2.6-2.6s-1.2-2.6-2.6-2.6c-1.5,0-2.6,1.2-2.6,2.6S-10.5-6.1-9.1-6.1z"/>
<path class="st3" d="M135.9,13c0.7,0,1.1,0.5,1.1,1.3v2.8h1v-2.9c0-1.4-0.7-2.2-1.9-2.2c-0.5,0-1.2,0.1-1.7,1
	c-0.2-0.5-0.7-0.9-1.3-1c-0.2,0-0.4,0-0.5,0c-0.4,0-1.1,0.3-1.3,0.8v-0.7h-1v4.9h1v-2.7c0-1,0.7-1.4,1.4-1.4c0.6,0,1.1,0.5,1.1,1.3
	v2.8h0.9v-2.7C134.6,13.6,135.1,13,135.9,13z M126.7,16.3c0.4,0,0.9-0.2,1.2-0.5c0.3-0.3,0.5-0.7,0.5-1.2c0-1-0.7-1.6-1.6-1.6
	c-0.9,0-1.6,0.6-1.6,1.6c0,0.4,0.1,0.9,0.4,1.2C125.9,16.1,126.3,16.3,126.7,16.3L126.7,16.3z M126.7,17.2c-1.4,0-2.6-1-2.6-2.6
	c0-1.6,1.2-2.6,2.6-2.6c1.4,0,2.6,1,2.6,2.6C129.3,16.2,128.1,17.2,126.7,17.2L126.7,17.2z M119.3,14.6L119.3,14.6
	c0-1.6,1.2-2.6,2.6-2.6c0.7,0,1.4,0.3,1.9,0.8l-0.7,0.6c-0.3-0.3-0.7-0.5-1.2-0.5c-0.9,0-1.6,0.6-1.6,1.6c0,0.7,0.4,1.3,1,1.5
	c0.6,0.3,1.3,0.1,1.8-0.4l0.7,0.6c-0.5,0.5-1.2,0.8-1.9,0.8C120.5,17.2,119.3,16.2,119.3,14.6z M116.2,16.2c0-0.2,0.1-0.3,0.2-0.5
	c0.1-0.1,0.3-0.2,0.5-0.2c0.2,0,0.3,0.1,0.5,0.2c0.1,0.1,0.2,0.3,0.2,0.5c0,0.3-0.3,0.6-0.7,0.6C116.6,16.8,116.3,16.5,116.2,16.2z"
	/>
<path class="st3" d="M118.9,5.9h-3.4l-2.4,6.1l-2.4-6.1h-3.4l4.1,9.7l-2.6,6.4h3.4L118.9,5.9z M98.2,11.3c0,1.5,1.4,2.6,2.7,2.6
	c1.3,0,2.6-0.9,2.6-2.6s-1.3-2.6-2.6-2.6C99.6,8.7,98.2,9.7,98.2,11.3L98.2,11.3z M103.5,16.7v-1.2c-0.7,1-2.3,1.4-3.1,1.4
	c-2.7,0-5.4-2.1-5.4-5.6c0-3.5,2.7-5.6,5.4-5.6c0.7,0,2.3,0.2,3.1,1.4V5.9h3.2v10.8L103.5,16.7L103.5,16.7z M94,16.7h-3.2v-1.3
	c-0.5,1-1.8,1.6-3.1,1.6c-2.7,0-5.2-2.2-5.2-5.6c0-3.5,2.4-5.7,5.2-5.7c1.3,0,2.6,0.6,3.1,1.5V0H94V16.7z M90.8,11.3
	c0-1.6-1.2-2.6-2.5-2.6c-1.4,0-2.5,1-2.5,2.6c0,1.6,1.1,2.6,2.5,2.6C89.7,13.9,90.8,12.8,90.8,11.3z M74.8,11c0-1.6,0.8-2.2,2-2.2
	c1.1,0,1.9,0.7,1.9,2.1v5.8h3.2v-6.4c0-3.1-1.5-4.6-3.9-4.6c-1.3,0-2.5,0.7-3.1,1.8V5.9h-3.2v10.8h3.2V11z M65.1,16.9
	c-3,0-5.5-2.2-5.5-5.6c0-3.4,2.5-5.6,5.5-5.6c3,0,5.6,2.2,5.6,5.6C70.7,14.7,68.1,16.9,65.1,16.9L65.1,16.9z M65.1,13.7
	c1.3,0,2.4-1,2.4-2.5c0-1.5-1.1-2.4-2.4-2.4c-0.6,0-1.3,0.2-1.7,0.7c-0.5,0.5-0.7,1.1-0.7,1.7C62.7,12.8,63.8,13.7,65.1,13.7z
	 M53.9,8.8c0.9,0,1.8,0.7,1.8,2.1v5.8h3.2v-6.1c0-3.3-1.6-4.9-4.1-4.9c-0.8,0-2.2,0.2-3.2,1.9c-0.6-1.2-1.7-1.9-3.4-1.9
	c-1.2,0-2.3,0.7-2.8,1.8V5.9h-3.2v10.8h3.2V11c0-1.6,0.9-2.2,1.9-2.2c0.9,0,1.7,0.7,1.8,2.1v5.8H52V11C52,9.4,52.9,8.8,53.9,8.8
	L53.9,8.8z"/>
</svg>
