<?xml version="1.0" encoding="utf-8"?>
<!-- Generator: Adobe Illustrator 24.3.0, SVG Export Plug-In . SVG Version: 6.00 Build 0)  -->
<svg version="1.1" id="Layer_1" xmlns="http://www.w3.org/2000/svg" xmlns:xlink="http://www.w3.org/1999/xlink" x="0px" y="0px"
	 viewBox="0 0 138 22" style="enable-background:new 0 0 138 22;" xml:space="preserve">
<style type="text/css">
	.st0{fill:#F62B54;}
	.st1{fill:#FFCC00;}
	.st2{fill:#00CA72;}
	.st3{fill:#3DB5E6;}
	.st4{fill:#D8292F;}
</style>
<path class="st0" d="M-26.5-6.2c-1,0-2-0.5-2.5-1.4c-0.5-0.9-0.5-2,0.1-2.8l5.1-8c0.5-0.9,1.5-1.4,2.5-1.4c1,0,2,0.6,2.4,1.5
	c0.5,0.9,0.4,2-0.2,2.8l-5.1,8C-24.6-6.6-25.5-6.1-26.5-6.2z"/>
<path class="st1" d="M-17.7-6.2c-1,0-2-0.6-2.5-1.4c-0.5-0.9-0.5-2,0.1-2.8l5.1-8c0.5-0.9,1.5-1.4,2.5-1.4c1,0,2,0.6,2.5,1.5
	c0.5,0.9,0.4,2-0.2,2.9l-5.1,8C-15.8-6.6-16.7-6.1-17.7-6.2z"/>
<path class="st2" d="M-9.1-6.1c1.5,0,2.6-1.2,2.6-2.6s-1.2-2.6-2.6-2.6c-1.5,0-2.6,1.2-2.6,2.6S-10.5-6.1-9.1-6.1z"/>
<path class="st3" d="M136.7,6c1.2,0.9-0.1,2.4-1.1,1.7c-1.3-0.8-4.1-1.2-4.5,0.6c-0.5,2.8,6.9,1.2,6.8,5.7c-0.1,4.3-6.4,4.4-8.7,2.5
	c-0.6-0.5-0.5-1.2-0.2-1.7c0.4-0.4,0.9-0.6,1.5-0.1c1.4,1,5,1.7,5.2-0.7c-0.2-2.5-7.3-1-6.8-5.8C129.4,4.8,134.4,4.2,136.7,6z
	 M125.6,6.6v6.2c0,6.4-10.3,6.4-10.3,0V6.6c0-1.5,2.2-1.6,2.2,0v6.2c0,3.4,5.8,3.6,5.8,0V6.6C123.3,5.1,125.6,5,125.6,6.6z
	 M55.3,5.1c3,0.2,6.1,2.2,6.1,6.2c0,4-3.1,6.1-6.1,6.1c-3.1,0.1-6.4-2-6.4-6.1C48.9,7.1,52.2,5.1,55.3,5.1z M70.3,5.5
	c4.3,0,5.2,5.8,1.6,7.2l2.3,2.8c0.9,1.3-0.9,2.6-1.9,1.3l-2.6-3.7H67v3.1c0,1.5-2.3,1.5-2.3,0V6.5c0-0.6,0.5-1,1-1H70.3z M35.1,5.3
	c0.5,0,0.8,0.3,1.1,0.6l3.7,5.1l3.9-5.2c0.6-0.7,1.9-0.4,1.9,0.7v9.6c0,0.7-0.5,1.2-1,1.2c-0.6,0-1.1-0.4-1.1-1.2V9.8l-2.8,3.6
	c-0.6,0.7-1.4,0.7-1.9,0l-2.5-3.6v6.3c0,0.7-0.6,1.2-1.2,1.2c-0.5,0-1-0.4-1-1.2V6.5C34,5.6,34.8,5.3,35.1,5.3z M82.7,5.3
	c2.2,0,4.2,1.5,4.2,4.3c0,2.7-2,4.2-4.2,4.2h-2.8v2.2c0,0.7-0.5,1.2-1.1,1.2c-0.6,0-1.2-0.4-1.2-1.2V6.5c0-0.6,0.4-1.2,1.2-1.2H82.7
	z M98.9,5.5c0.6,0,1.1,0.4,1.1,1.1v9.7c0,0.6-0.5,1.1-1.1,1.1c-0.6,0-1.2-0.5-1.2-1.1v-3.7h-5.5v3.7c0,0.6-0.4,1.1-1,1.1
	c-0.8,0-1.2-0.5-1.2-1.1V6.6c0-0.6,0.4-1.1,1.2-1.1c0.6,0,1,0.4,1,1.1v3.7h5.5V6.6C97.7,5.9,98.3,5.5,98.9,5.5z M110.7,5.5
	c1.6,0,1.5,2.2,0,2.2h-4.9v2.6h4.3c1.5,0,1.5,2.2,0,2.2h-4.3V15h5.2c1.5,0,1.7,2.2,0,2.2h-6.4c-0.6,0-1.1-0.5-1.1-1.1V6.6
	c0-0.6,0.5-1.1,1.1-1.1H110.7z M55.1,7.3c-1.9,0-4,1.3-4,4c0,2.7,2.1,4,4,4c2,0,4-1.4,4-4C59.2,8.6,57.1,7.3,55.1,7.3z M82.7,7.5
	h-2.8v4.2h2.8c1.1,0,2-1,2-2.1C84.7,8.5,83.8,7.5,82.7,7.5z M70.3,7.6H67v3.6h3.3C72.5,11.1,72.7,7.6,70.3,7.6z"/>
<path class="st3" d="M22,13.6c-1.2,4.9-5.6,8.3-10.9,8.3c-5.2,0-9.6-3.7-10.8-8.6c1.4,0,2.7,0,3.3,0c0.3,0,0.3,0,0.4,0
	c0.5,0,1-0.2,1.4-1.1l1.5-3.8l3.2,7.8c0.3,0.6,0.8,0.6,1.1,0.6h0c0.6,0,0.8-0.2,1-0.6l3.6-7.7L17,12l0.1,0.2
	c0.3,0.6,0.5,1.1,1.1,1.2c0.1,0,1.7,0,3.8,0C22,13.4,22,13.4,22,13.6z"/>
<path class="st4" d="M22.3,11.1c0,0.1,0,0.2,0,0.2h0H19l-2-5.5c-0.2-0.4-0.4-1-1.2-1c-0.5,0-0.9,0.4-1.1,1L11.2,14L7.8,5.9
	C7.4,5.1,7.2,4.8,6.5,4.8c-0.5,0-0.8,0.2-1.1,1l-2,5.5l-3.4,0c0-0.1,0-0.2,0-0.3C0,5,5,0,11.1,0C17.2,0,22.3,4.9,22.3,11.1z"/>
</svg>
