<?xml version="1.0" encoding="utf-8"?>
<!-- Generator: Adobe Illustrator 24.3.0, SVG Export Plug-In . SVG Version: 6.00 Build 0)  -->
<svg version="1.1" id="Layer_1" xmlns="http://www.w3.org/2000/svg" xmlns:xlink="http://www.w3.org/1999/xlink" x="0px" y="0px"
	 viewBox="0 0 138 22" style="enable-background:new 0 0 138 22;" xml:space="preserve">
<style type="text/css">
	.st0{fill:#63D2F9;}
	.st1{fill:#4E5EE4;}
	.st2{fill:#63B0F9;}
	.st3{fill:#282846;}
</style>
<path class="st0" d="M19.9,22v-5.7h-6.2c-1.7,0-3.3,0.9-4.1,2.3l-2,3.4H19.9z"/>
<path class="st1" d="M0.1,0v5.7h16.4L19.9,0H0.1z"/>
<path class="st2" d="M7.9,9L0.1,22h6.7l9.4-15.6h-3.7C10.6,6.4,8.9,7.4,7.9,9z"/>
<path class="st3" d="M31.1,16.5c-3.3,0-5.8-2.4-5.8-5.7c0-3.2,2.5-5.7,5.8-5.7c3.3,0,5.8,2.5,5.8,5.7C37,14,34.5,16.5,31.1,16.5z
	 M31.2,14.5c2.1,0,3.6-1.6,3.6-3.7c0-2.1-1.5-3.7-3.6-3.7c-2.1,0-3.6,1.6-3.6,3.7C27.5,12.9,29,14.5,31.2,14.5z M39.2,19.9V8h2V9
	h0.1c0.2-0.3,1-1.3,2.5-1.3c2.3,0,3.9,1.7,3.9,4.3c0,2.6-1.6,4.4-3.9,4.4c-1.5,0-2.3-0.8-2.5-1.3h-0.1v4.7H39.2z M43.5,14.6
	c1.3,0,2.2-1,2.2-2.5c0-1.5-0.9-2.5-2.2-2.5c-1.4,0-2.2,1.1-2.2,2.5C41.2,13.7,42.2,14.6,43.5,14.6z M53.6,16.5
	c-2.4,0-4.2-1.8-4.2-4.3c0-2.6,1.8-4.4,4.2-4.4c2.7,0,4.1,2,4.1,4.3v0.6h-6.3c0.1,1.3,0.9,2.1,2.3,2.1c1,0,1.8-0.5,2.1-1.1h1.9
	C57.3,15.4,55.8,16.5,53.6,16.5z M51.5,11.3h4.3c-0.1-1.1-1-1.9-2.2-1.9C52.5,9.4,51.6,10.2,51.5,11.3z M60,16.3V8h2v1h0.1
	c0.3-0.6,1.2-1.2,2.3-1.2c1.9,0,3,1.3,3,3.1v5.4h-2.1v-4.9c0-1-0.6-1.7-1.6-1.7c-1,0-1.7,0.8-1.7,1.8v4.7H60z M69.4,16.3v-1.9
	l5.8-7.2V7.1h-5.5V5.3h8.2v1.9l-5.8,7.2v0.1h5.8v1.8H69.4z M83.4,16.5c-2.4,0-4.2-1.8-4.2-4.3c0-2.6,1.8-4.4,4.2-4.4
	c2.7,0,4.1,2,4.1,4.3v0.6h-6.3c0.1,1.3,0.9,2.1,2.3,2.1c1,0,1.8-0.5,2.1-1.1h1.9C87,15.4,85.5,16.5,83.4,16.5z M81.2,11.3h4.3
	c-0.1-1.1-1-1.9-2.2-1.9C82.2,9.4,81.4,10.2,81.2,11.3z M89.7,19.9V8h2V9h0.1c0.2-0.3,1-1.3,2.5-1.3c2.3,0,3.9,1.7,3.9,4.3
	c0,2.6-1.6,4.4-3.9,4.4c-1.5,0-2.3-0.8-2.5-1.3h-0.1v4.7H89.7z M94,14.6c1.3,0,2.2-1,2.2-2.5c0-1.5-0.9-2.5-2.2-2.5
	c-1.4,0-2.2,1.1-2.2,2.5C91.7,13.7,92.7,14.6,94,14.6z M100.5,19.9V8h2V9h0.1c0.2-0.3,1-1.3,2.5-1.3c2.3,0,3.9,1.7,3.9,4.3
	c0,2.6-1.6,4.4-3.9,4.4c-1.5,0-2.3-0.8-2.5-1.3h-0.1v4.7H100.5z M104.7,14.6c1.3,0,2.2-1,2.2-2.5c0-1.5-0.9-2.5-2.2-2.5
	c-1.4,0-2.2,1.1-2.2,2.5C102.5,13.7,103.4,14.6,104.7,14.6z M114.9,16.5c-2.4,0-4.2-1.8-4.2-4.3c0-2.6,1.8-4.4,4.2-4.4
	c2.7,0,4.1,2,4.1,4.3v0.6h-6.3c0.1,1.3,0.9,2.1,2.3,2.1c1,0,1.8-0.5,2.1-1.1h1.9C118.5,15.4,117.1,16.5,114.9,16.5z M112.8,11.3h4.3
	c-0.1-1.1-1-1.9-2.2-1.9C113.8,9.4,112.9,10.2,112.8,11.3z M123.3,16.3c-1.5,0-2.3-0.9-2.3-2.3V4.5h2.1v9.3c0,0.5,0.2,0.7,0.7,0.7
	h0.3v1.8H123.3z M127,6.9c-0.7,0-1.3-0.5-1.3-1.2c0-0.7,0.5-1.2,1.3-1.2c0.7,0,1.3,0.5,1.3,1.2C128.3,6.4,127.8,6.9,127,6.9z
	 M126,16.3V8h2.1v8.3H126z M130.6,16.3V8h2v1h0.1c0.3-0.6,1.2-1.2,2.3-1.2c1.9,0,3,1.3,3,3.1v5.4h-2.1v-4.9c0-1-0.6-1.7-1.6-1.7
	c-1,0-1.7,0.8-1.7,1.8v4.7H130.6z"/>
</svg>
