<?xml version="1.0" encoding="utf-8"?>
<!-- Generator: Adobe Illustrator 24.3.0, SVG Export Plug-In . SVG Version: 6.00 Build 0)  -->
<svg version="1.1" id="Layer_1" xmlns="http://www.w3.org/2000/svg" xmlns:xlink="http://www.w3.org/1999/xlink" x="0px" y="0px"
	 viewBox="0 0 138 22" style="enable-background:new 0 0 138 22;" xml:space="preserve">
<style type="text/css">
	.st0{fill:#EA1B22;}
</style>
<path class="st0" d="M59.6,14.3h9.1l-4.8-9.5L55,22h-4L61.8,1.3C62.2,0.5,63,0,63.9,0c0.8,0,1.6,0.5,2.1,1.3L76.7,22h-4l-1.9-3.8
	h-9.2L59.6,14.3z M101.4,18.2V0.2H98v19.7c0,0.5,0.2,1.1,0.5,1.5c0.3,0.4,0.8,0.6,1.2,0.6h15.6l2-3.8H101.4z M44.9,14.9
	c3.3,0,6-3.3,6-7.4c0-4.1-2.7-7.4-6-7.4h-15V22h3.4V4.1h11.3c1.6,0,2.9,1.6,2.9,3.5s-1.3,3.5-2.9,3.5l-9.6,0L45.2,22h5l-6.9-7.1
	H44.9z M8.9,22C4,22,0,17.1,0,11.1c0-6,4-10.9,8.9-10.9h10.3c4.9,0,8.9,4.9,8.9,10.9c0,6-4,10.9-8.9,10.9H8.9z M19,18.2
	c3.2,0,5.8-3.1,5.8-7c0-3.9-2.6-7.1-5.8-7.1H9.1c-3.2,0-5.8,3.2-5.8,7.1c0,3.9,2.6,7,5.8,7H19z M83.9,22C79,22,75,17.1,75,11.1
	c0-6,4-10.9,8.9-10.9h12.3l-2,3.8h-10c-3.2,0-5.8,3.2-5.8,7.1c0,3.9,2.6,7,5.8,7h12.3l-2,3.8H83.9z M125.7,18.2
	c-2.6,0-4.8-2.2-5.5-5.1h14.6l2-3.8h-16.6c0.7-3,2.9-5.1,5.5-5.1h10l2-3.8h-12.3c-4.9,0-8.9,4.9-8.9,10.9c0,6,4,10.9,8.9,10.9H136
	l2-3.8H125.7z"/>
</svg>
