<?xml version="1.0" encoding="utf-8"?>
<!-- Generator: Adobe Illustrator 24.3.0, SVG Export Plug-In . SVG Version: 6.00 Build 0)  -->
<svg version="1.1" id="Layer_1" xmlns="http://www.w3.org/2000/svg" xmlns:xlink="http://www.w3.org/1999/xlink" x="0px" y="0px"
	 viewBox="0 0 138 22" style="enable-background:new 0 0 138 22;" xml:space="preserve">
<style type="text/css">
	.st0{fill:#E15B29;}
</style>
<path class="st0" d="M0.2,16.7C0.1,16.6,0,16.5,0,16.3V5.7c0-0.1,0.1-0.3,0.2-0.4L9.5,0C9.7,0,9.8,0,10,0l9.3,5.3
	c0.1,0.1,0.2,0.2,0.2,0.4v10.6c0,0.1-0.1,0.3-0.2,0.4L10,22c-0.1,0.1-0.3,0.1-0.4,0L0.2,16.7z M29.8,4.2v7.1h3
	c2.2,0,3.2-0.9,3.2-2.4V6.6c0-1.5-1-2.4-3.2-2.4H29.8z M29.8,13.5v6.3c0,0.4-0.1,0.5-0.4,0.5h-1.5c-0.3,0-0.4-0.2-0.4-0.5V2.5
	c0-0.4,0.1-0.5,0.4-0.5h4.9c4.2,0,5.5,1.9,5.5,4.2v3.2c0,2.2-1.3,4.2-5.5,4.2H29.8z M43.8,4.2v6.6h3C49,10.8,50,10,50,8.5V6.6
	c0-1.5-1-2.4-3.2-2.4H43.8z M43.8,13.1v6.7c0,0.4-0.1,0.5-0.4,0.5h-1.5c-0.3,0-0.4-0.2-0.4-0.5V2.5c0-0.4,0.1-0.5,0.4-0.5h4.9
	c4.2,0,5.5,1.9,5.5,4.2v2.8c0,1.6-0.8,3.1-2.8,3.8l2.9,7.1c0.1,0.3-0.1,0.5-0.4,0.5h-1.5c-0.3,0-0.4-0.2-0.5-0.5l-2.7-6.7H43.8z
	 M65.1,6.4c0-1.5-1-2.4-3.3-2.4c-2.3,0-3.3,0.9-3.3,2.4V16c0,1.5,1,2.4,3.3,2.4c2.3,0,3.3-0.9,3.3-2.4V6.4z M55.9,5.9
	c0-2.2,1.4-4.2,5.8-4.2c4.4,0,5.9,1.9,5.9,4.2v10.5c0,2.2-1.4,4.2-5.9,4.2c-4.4,0-5.8-1.9-5.8-4.2V5.9z M81.2,2
	c0.3,0,0.5,0.1,0.5,0.5v1.2c0,0.4-0.2,0.5-0.5,0.5h-4.1v15.6c0,0.4-0.1,0.5-0.5,0.5H75c-0.3,0-0.5-0.2-0.5-0.5V4.2h-4.1
	c-0.4,0-0.5-0.1-0.5-0.5V2.5C70,2.1,70.1,2,70.4,2H81.2z M93.1,6.4c0-1.5-1-2.4-3.3-2.4c-2.3,0-3.3,0.9-3.3,2.4V16
	c0,1.5,1,2.4,3.3,2.4c2.3,0,3.3-0.9,3.3-2.4V6.4z M84,5.9c0-2.2,1.4-4.2,5.8-4.2c4.4,0,5.9,1.9,5.9,4.2v10.5c0,2.2-1.4,4.2-5.9,4.2
	c-4.4,0-5.8-1.9-5.8-4.2V5.9z M110.5,19.8c0,0.4-0.1,0.5-0.4,0.5h-1.3c-0.2,0-0.3-0.1-0.4-0.2L102.6,9c-0.5-1-0.8-1.8-0.9-1.9v12.8
	c0,0.4-0.1,0.5-0.4,0.5h-1.4c-0.3,0-0.4-0.2-0.4-0.5V2.5c0-0.4,0.1-0.5,0.4-0.5h1.4c0.2,0,0.3,0.1,0.4,0.2l5.9,11.4
	c0.3,0.6,0.8,1.7,0.8,1.7V2.5c0-0.4,0.1-0.5,0.5-0.5h1.3c0.3,0,0.4,0.2,0.4,0.5V19.8z M114.7,20.4c-0.3,0-0.4-0.2-0.4-0.5V2.5
	c0-0.4,0.1-0.5,0.4-0.5h8.3c0.3,0,0.5,0.1,0.5,0.5v1.2c0,0.4-0.1,0.5-0.5,0.5h-6.4v5.5h6c0.3,0,0.5,0.1,0.5,0.5v1.2
	c0,0.4-0.1,0.5-0.5,0.5h-6v6.2h6.7c0.3,0,0.5,0.1,0.5,0.5v1.2c0,0.4-0.1,0.5-0.5,0.5H114.7z M137.2,2c0.3,0,0.5,0.1,0.5,0.5v1.2
	c0,0.4-0.1,0.5-0.5,0.5h-3.9v15.6c0,0.4-0.1,0.5-0.4,0.5h-1.5c-0.3,0-0.4-0.2-0.4-0.5V4.2H127c-0.3,0-0.5-0.1-0.5-0.5V2.5
	c0-0.4,0.1-0.5,0.5-0.5H137.2z"/>
</svg>
