<svg width="15" height="13" viewBox="0 0 15 13" fill="none" xmlns="http://www.w3.org/2000/svg">
<path d="M14.1702 0.2559L13.8533 2.71187C13.0787 2.65906 12.4801 2.7999 12.0575 3.13441C11.635 3.46891 11.3533 3.93546 11.2125 4.53405C11.0716 5.13264 11.0452 5.81045 11.1332 6.56749H14.1702V12.9319H8.33396V6.03932C8.33396 3.96187 8.82691 2.39497 9.81282 1.33864C10.8163 0.264703 12.2688 -0.096211 14.1702 0.2559ZM6.03643 0.2559L5.71953 2.71187C4.94489 2.65906 4.3463 2.7999 3.92377 3.13441C3.50124 3.46891 3.21955 3.93546 3.0787 4.53405C2.93786 5.13264 2.91145 5.81045 2.99948 6.56749H6.03643V12.9319H0.200195V6.03932C0.200195 3.96187 0.693151 2.39497 1.67906 1.33864C2.68258 0.264703 4.13503 -0.096211 6.03643 0.2559Z" fill="white"/>
</svg>
