<svg width="97" height="101" viewBox="0 0 97 101" fill="none" xmlns="http://www.w3.org/2000/svg">
<path fill-rule="evenodd" clip-rule="evenodd" d="M52.3066 84.0185C52.0134 83.8635 51.5507 83.6192 51.057 83.3582C51.1551 83.2029 51.2227 83.0956 51.3328 82.9212C51.2078 82.7792 51.033 82.6383 50.9369 82.4565C50.8416 82.2755 50.8246 82.0535 50.7745 81.8526C50.6378 81.8062 50.5073 81.7619 50.3876 81.7213V81.2313C50.5392 81.1592 50.6929 81.0855 50.8863 80.9931C50.7844 80.7885 50.6921 80.6025 50.5827 80.3843C50.7911 80.2521 50.9949 80.0127 51.1891 80.021C51.8431 80.0475 52.5212 79.8193 53.1537 80.1631C53.2427 80.2119 53.3608 80.2211 53.466 80.2235C54.2302 80.2434 54.9803 80.2513 55.7486 80.4199C56.7034 80.6286 57.7111 80.5901 58.6936 80.6845C59.0428 80.7181 59.3824 80.8353 59.7295 80.9016C60.0414 80.9608 60.4092 80.7616 60.6615 81.1145C60.688 81.1518 60.8031 81.1311 60.8765 81.1286C61.7856 81.0992 62.638 81.3866 63.5153 81.5531C64.3176 81.7051 65.1257 81.8335 65.9169 82.0369C67.5459 82.4548 69.1949 82.7858 70.8015 83.3106C71.4224 83.5135 72.0686 83.726 72.7263 83.8524C72.9015 83.8859 73.049 84.0611 73.3994 84.3022H72.3146C72.3109 84.3482 72.3072 84.3945 72.303 84.4414C72.6799 84.5809 73.056 84.7209 73.4835 84.88C73.3957 85.0349 73.3124 85.1824 73.2383 85.3132C73.3157 85.4288 73.394 85.5448 73.5079 85.7142C73.1074 86.0004 72.7458 86.2593 72.3805 86.5202C72.327 86.3877 72.2749 86.2585 72.197 86.065C72.04 86.1359 71.8888 86.2034 71.7343 86.273C71.6059 86.2228 71.4485 86.1611 71.2911 86.0998C71.1321 86.0385 70.9722 85.9772 70.8811 85.9424C70.6114 86.0137 70.3803 86.075 70.1823 86.1276C70.0005 85.9453 69.8671 85.8128 69.7346 85.6798C69.0669 86.1905 68.4617 85.5734 67.8218 85.5672C67.6917 85.5655 67.5633 85.4309 67.4333 85.4292C66.638 85.4185 65.8957 85.1753 65.1332 84.9906C64.4353 84.8208 63.6951 84.8307 62.9756 84.7404C62.5527 84.6874 62.134 84.5983 61.7152 84.5172C61.2952 84.436 60.816 84.718 60.4449 84.3076C60.4101 84.269 60.3028 84.2972 60.2286 84.2922C59.0565 84.2173 57.883 84.1547 56.7125 84.0607C56.2515 84.0234 55.7992 83.8851 55.3382 83.8495C54.8523 83.8114 54.3598 83.8205 53.8723 83.8466C53.4117 83.8714 52.9536 83.9447 52.3066 84.0185Z" fill="black"/>
<path fill-rule="evenodd" clip-rule="evenodd" d="M15.4609 82.1234C15.038 81.8678 14.7373 81.6856 14.4452 81.5091C14.794 80.5627 14.794 80.5627 13.6607 80.0118C13.5278 80.1452 13.3948 80.2777 13.1886 80.4844C13.0962 80.3419 13.0038 80.199 12.8717 79.9952C13.2262 79.6601 13.2163 79.2331 12.8112 78.8359C13.1422 78.5426 13.4205 78.2962 13.7813 77.976C13.8968 77.9706 14.1499 77.9578 14.4146 77.9449C14.4419 77.8174 14.4639 77.7142 14.4867 77.6074C14.543 77.5784 14.6051 77.5187 14.6668 77.5196C14.9961 77.5241 15.3022 77.3506 15.5918 77.3191C16.9218 77.1754 18.2049 76.6717 19.5768 76.8204C19.9094 76.8564 20.3733 76.5147 20.5849 76.6493C20.9486 76.88 21.1553 76.5627 21.4386 76.5992C21.8085 76.6468 22.192 76.6402 22.5636 76.5992C22.7595 76.5777 22.9418 76.4348 23.1149 76.3536C23.2296 76.4588 23.3104 76.5333 23.3253 76.5466C24.082 76.2939 24.7721 76.2977 25.6088 76.5843C25.6378 76.5661 25.7861 76.3958 25.9319 76.3979C27.0067 76.4136 28.0799 76.4869 29.1544 76.4952C29.8225 76.5006 30.4906 76.4107 31.1595 76.3938C31.3558 76.3888 31.5547 76.4874 31.8048 76.5516C31.8222 76.5358 31.9013 76.4642 31.9767 76.3962C32.062 76.4716 32.1441 76.5445 32.2377 76.6278C32.919 76.2397 33.6339 76.4049 34.3443 76.4169C34.3443 76.5756 34.3443 76.6506 34.3443 76.7259C34.1571 76.822 33.9703 76.9181 33.7603 77.0254C33.7131 76.984 33.6348 76.9148 33.5503 76.8398C32.7393 77.2677 31.8322 76.9604 30.9731 77.2271C31.2022 77.2478 31.4594 77.3435 31.6536 77.2706C31.932 77.1667 32.0931 77.6364 32.4087 77.3443C32.5243 77.2379 32.8569 77.3667 33.2363 77.4019C33.2247 77.4081 33.3689 77.3241 33.4981 77.2483C33.6232 77.3626 33.7039 77.4367 33.7847 77.51C34.0258 77.1526 34.3841 77.3216 34.6955 77.3C34.8074 77.4123 34.9138 77.5187 35.0638 77.6683C34.8016 77.7196 34.5729 77.7648 34.3443 77.8091C34.3464 77.8501 34.348 77.8903 34.3501 77.9309C34.6322 77.9516 34.9146 77.9719 35.3106 78.0004C35.1942 78.3765 35.0944 78.6984 34.9689 79.1039C33.9794 79.0053 32.9758 78.9046 32.1204 78.8193C31.792 79.1329 31.5795 79.3362 31.3869 79.5197C30.8658 79.3905 30.6695 78.9738 30.4251 78.6081C30.259 78.7771 30.1277 78.9109 30.0271 79.014C29.67 78.9514 29.3403 78.8935 29.0744 78.8471C28.8946 79.1349 28.7638 79.3445 28.6412 79.5409H27.8964C27.7875 79.6697 27.6674 79.8122 27.5377 79.9654H26.508C26.4732 79.8668 26.4277 79.7359 26.3452 79.5011C25.8954 79.6336 25.439 79.7683 25.014 79.8938C24.7033 79.854 24.3985 79.7989 24.0912 79.7786C23.7917 79.7587 23.4164 79.6622 23.2064 79.8006C22.8904 80.0085 22.5893 79.9812 22.2678 80.001C21.939 80.0209 21.555 79.9517 21.2982 80.1C21.0575 80.2392 20.8554 79.9348 20.6003 80.1961C20.4416 80.3577 19.9831 80.2259 19.6522 80.3867C19.8804 80.431 20.109 80.4757 20.3882 80.5304C19.8083 80.9678 19.368 80.4612 18.8855 80.4235C18.3354 80.3809 17.9481 80.8125 17.4163 80.7909C17.5563 80.8593 17.6963 80.9272 17.8247 80.9897C17.7829 81.0361 17.7361 81.1264 17.6996 81.1223C17.5248 81.1028 17.3533 81.0535 17.1794 81.0229C16.9603 80.9839 16.7391 80.9533 16.5013 81.0316C16.6471 81.1016 16.7925 81.1712 17.0808 81.3095H15.9811C15.8018 81.5903 15.6518 81.8243 15.4609 82.1234Z" fill="black"/>
<path fill-rule="evenodd" clip-rule="evenodd" d="M16.2214 21.0886C16.4289 21.2207 16.6989 21.393 17.0233 21.6001C16.8257 21.6672 16.6948 21.712 16.5498 21.7613C16.5631 21.8122 16.5614 21.8971 16.5921 21.9108C16.8447 22.0263 17.1036 22.1278 17.3608 22.2339C17.073 22.6286 17.6321 22.9927 17.348 23.3319C17.167 23.5626 16.986 23.7929 16.7934 24.0381C15.7562 23.5564 14.6888 23.6521 13.6951 23.7933C12.9297 23.9027 12.1725 23.906 11.4146 23.9818C11.0314 24.0207 10.6814 24.3015 10.2668 24.1926C10.1065 24.1508 9.95532 24.0737 9.8 24.0133C9.55396 24.6739 9.01053 24.6839 8.34201 24.618C8.25213 24.3624 8.15976 24.1011 8.09225 23.9097C7.81515 23.6533 7.5716 23.4276 7.26964 23.1488C7.22864 23.2279 7.13213 23.4143 7.1139 23.4495C6.1397 23.643 5.30095 23.2913 4.5003 23.7718C4.40544 23.7022 4.29195 23.6194 4.16935 23.5303C3.81686 23.616 3.43953 23.708 3.06799 23.7991C2.96941 23.5941 2.89982 23.4479 2.80828 23.2569C2.74284 23.4371 2.69562 23.5672 2.61609 23.785C2.32864 23.7018 2.03497 23.6169 1.70361 23.5208C1.63982 23.6513 1.56692 23.8008 1.46544 24.0083C1.31343 23.9325 1.16225 23.8579 1.00319 23.7788C0.543846 24.1727 -0.0372777 23.8708 -0.478402 23.9698C-0.700414 23.8579 -0.85077 23.7813 -1.0268 23.6923C-1.09598 23.8857 -1.14278 24.0162 -1.17799 24.1135C-2.05195 24.2212 -2.91059 24.3268 -3.75349 24.4308C-3.81314 24.594 -3.86035 24.7244 -3.92663 24.9063C-4.01858 24.7174 -4.08817 24.5737 -4.16438 24.4167C-4.65769 24.4039 -4.75793 24.9386 -5.17793 25.1258C-5.4484 24.9717 -5.75201 24.7986 -6.06349 24.6213C-6.08254 24.4179 -6.09953 24.2398 -6.11817 24.0456C-6.4313 23.8882 -6.99089 24.0684 -7 23.452C-6.77012 23.2967 -6.54065 23.1414 -6.25568 22.9488C-6.4458 22.8858 -6.57296 22.8431 -6.70882 22.7984C-6.68686 22.3254 -6.32154 22.1427 -5.91065 21.9365C-5.60746 21.9365 -5.12657 22.0789 -4.88343 21.8988C-4.60799 21.695 -4.3632 21.9456 -4.09893 21.7389C-3.85331 21.5471 -3.39107 21.8453 -3.06178 21.5272C-2.96195 21.4303 -2.64675 21.415 -2.5345 21.4999C-2.22509 21.7343 -1.97118 21.4974 -1.69491 21.4879C-1.31923 21.475 -0.943136 21.4846 -0.567041 21.4846C-0.228639 21.4846 0.190118 21.6109 0.430355 21.4572C0.871893 21.1752 1.31426 21.4324 1.75663 21.2899C2.19941 21.1478 2.73166 21.3123 3.21047 21.2435C3.68432 21.1756 4.10763 21.4431 4.6142 21.2899C5.09675 21.1445 5.65965 21.2878 6.1832 21.2505C6.68148 21.2145 7.17645 21.1197 7.66893 21.0294C8.16225 20.9395 8.69657 21.2447 9.17 20.8235C9.29592 20.7121 9.60615 20.8069 9.83189 20.8069C11.3359 20.8069 12.8402 20.7817 14.3434 20.8194C14.9498 20.8347 15.5533 20.9884 16.2214 21.0886Z" fill="black"/>
<path fill-rule="evenodd" clip-rule="evenodd" d="M50.3088 94.3124C49.9443 94.5348 49.7334 94.6632 49.5255 94.7895C49.8034 94.9088 50.1046 95.0385 50.4533 95.1884C50.3709 95.3922 50.3191 95.521 50.2383 95.7203C50.8307 96.2927 49.9488 96.605 49.8726 97.1787C49.3093 96.89 48.7655 96.6112 48.2001 96.3213C48.176 96.3917 48.1334 96.5163 48.0609 96.7297C46.3109 96.3465 44.5186 96.185 42.7036 96.1092C42.9318 96.0645 43.1605 96.0201 43.3883 95.9754C43.3866 95.9402 43.3846 95.9054 43.3825 95.8702H41.6383C41.594 95.9928 41.5468 96.1229 41.4946 96.267H41.0385C40.2495 96.267 39.4575 96.2281 38.6714 96.2782C37.9511 96.3237 37.237 96.4646 36.3643 96.5855C35.9492 96.7785 35.4754 97.2855 34.6412 97.1339C34.526 96.9948 34.3397 96.7698 34.1114 96.494C34.1417 96.4335 34.205 96.3097 34.2692 96.1837C33.9395 95.6917 33.5924 95.1735 33.2793 94.7063C33.4549 94.1587 33.6098 93.6749 33.8053 93.064C34.3289 92.6162 35.1208 92.4671 35.883 92.4464C38.024 92.388 40.1675 92.4149 42.3097 92.4365C42.6924 92.4398 43.0739 92.5794 43.4566 92.651C43.8406 92.7227 44.2689 92.4924 44.6205 92.8523C44.6951 92.929 44.9063 92.8722 45.0542 92.878C46.2421 92.9232 48.5294 93.5681 49.8026 94.2101C49.8929 94.2552 50.0068 94.2532 50.3088 94.3124Z" fill="black"/>
<path fill-rule="evenodd" clip-rule="evenodd" d="M67.8252 20.9341C67.6545 20.9933 67.5237 21.0385 67.2896 21.1196C67.563 21.3234 67.7871 21.4908 68.0501 21.6867C67.9743 21.8056 67.8989 21.9232 67.8115 22.0599C67.9387 22.1203 68.0841 22.1903 68.2307 22.2608V22.5097C68.0882 22.5764 67.9354 22.648 67.7825 22.7197C67.8604 22.8075 67.9296 22.8862 67.9987 22.9649C67.8016 23.0668 67.6152 23.1637 67.348 23.3021C65.7583 23.201 64.0618 23.5145 62.3714 23.1799C62.516 23.2495 62.6605 23.319 62.8096 23.3911C62.1361 23.8658 61.5028 23.0722 60.843 23.3393C60.8264 23.3696 60.7933 23.4031 60.8003 23.4209C60.8128 23.4532 60.853 23.4731 60.8753 23.503C60.9122 23.5531 60.9441 23.6069 61.0621 23.7896C60.527 23.7026 60.0983 23.633 59.6033 23.5522C59.728 23.6964 59.7951 23.7738 59.863 23.8525C59.4919 24.2622 59.1672 23.6782 58.7128 23.7622C58.8134 23.8981 58.8652 23.9685 58.9563 24.0915C58.3777 24.2792 57.8193 24.5645 57.2386 24.6209C56.5751 24.6859 56.2756 25.3789 55.6783 25.3478C55.5566 25.8076 55.4489 26.2147 55.3341 26.6472H54.5322C54.4473 26.5627 54.2427 26.4487 54.2502 26.3506C54.3032 25.6141 53.4926 25.2575 53.5253 24.4875C53.5808 23.1732 54.1102 22.1543 55.3598 21.4908C56.2301 21.0285 57.1459 20.7067 58.1395 20.5538C58.7119 20.466 59.2831 20.4085 59.8522 20.3285C60.4238 20.2482 60.9814 20.0999 61.5691 20.1243C62.1324 20.1475 62.6978 20.1293 63.2624 20.1293C63.8642 20.1293 64.4739 20.0696 65.0666 20.1438C65.8739 20.244 66.6704 20.4366 67.4657 20.6151C67.5912 20.6433 67.6864 20.8061 67.8252 20.9341Z" fill="black"/>
<path fill-rule="evenodd" clip-rule="evenodd" d="M42.426 65.7362H41.6569C41.5351 65.2192 41.4216 64.7379 41.299 64.2173H40.7763C40.3985 63.5902 41.1246 63.0832 40.8753 62.5468C41.2791 61.9582 41.8718 61.841 42.4712 61.6915C43.674 61.392 44.9125 61.3775 46.1182 61.1932C47.6462 60.9604 49.1585 60.9911 50.6624 61.0565C52.4775 61.1356 54.2987 61.3684 56.0483 61.9325C56.2115 61.9852 56.3436 62.1355 56.537 62.2743C56.3623 62.3318 56.2351 62.3741 56.0939 62.4209C56.1026 62.471 56.0922 62.5501 56.1228 62.5717C56.3834 62.7593 56.651 62.937 56.9384 63.1325C56.8614 63.2265 56.7992 63.3027 56.7396 63.3756C56.8204 63.5177 56.9036 63.6639 56.9956 63.8271C56.7918 63.9224 56.6394 63.9936 56.4878 64.0649C56.5656 64.1547 56.6331 64.2322 56.7052 64.315C56.2123 64.53 55.8259 64.7578 55.1983 64.4588C54.5812 64.1643 53.7793 64.2202 53.0557 64.1945C52.0028 64.1572 50.9474 64.1962 49.8933 64.1796C49.4658 64.173 49.0284 64.2881 48.6159 63.9795C48.4672 63.8681 48.1441 63.9895 47.8537 64.0077C47.9813 64.156 48.0484 64.2334 48.2012 64.4111C47.6678 64.4111 47.2237 64.4422 46.7863 64.4012C46.4181 64.3668 46.0573 64.2492 45.5301 64.132C45.7189 64.3585 45.7827 64.4352 45.8755 64.5466C45.3424 64.7835 44.8499 64.5818 44.2042 64.3072C44.3682 64.5789 44.4275 64.6762 44.5579 64.8928C44.1168 64.7996 43.7668 64.7263 43.3062 64.6294C43.4603 64.8121 43.5249 64.8887 43.6483 65.0353C43.365 65.0627 43.1281 65.0859 42.8369 65.114C42.7118 65.3037 42.5602 65.5332 42.426 65.7362Z" fill="black"/>
<path fill-rule="evenodd" clip-rule="evenodd" d="M29.4497 63.6951C29.3022 63.5476 29.1958 63.4412 29.0019 63.2474C28.9361 63.4615 28.8698 63.6765 28.8578 63.7158C28.1379 63.6073 27.6587 63.5352 27.0092 63.4379C27.1881 63.6694 27.2445 63.7427 27.3447 63.8732C27.22 63.9126 27.1119 63.9474 27.0026 63.9821C26.9123 63.7991 26.8377 63.6487 26.7118 63.3936C26.5594 63.6019 26.4509 63.7506 26.3345 63.9101C25.5889 63.8355 24.8077 63.7576 24.0763 63.6852C24.0005 63.8082 23.9653 63.8417 23.9719 63.86C23.9839 63.8923 24.0245 63.9121 24.0468 63.942C24.085 63.9921 24.1181 64.0463 24.2345 64.2191C23.5602 64.1159 22.9865 64.0281 22.2641 63.9171C22.4489 64.135 22.5147 64.212 22.5806 64.2899C22.1419 64.6705 21.7339 64.2385 21.1984 64.1441C21.3226 64.3524 21.3802 64.4485 21.4539 64.5728C20.9205 64.8478 20.4375 64.1031 19.899 64.5223C20.0424 64.5918 20.1836 64.661 20.3961 64.765C19.9732 64.8574 19.6091 64.9365 19.0777 65.052C18.562 64.8143 18.1503 64.3094 18.0219 63.5303C17.8533 63.5174 17.6756 63.5042 17.4018 63.4839C17.4395 63.22 17.4768 62.962 17.5277 62.6103C17.5315 62.6153 17.447 62.5043 17.3774 62.4127C17.43 62.3017 17.4461 62.2259 17.4913 62.1779C18.1283 61.5052 18.8536 61.1034 19.8249 60.9738C20.4346 60.8922 21.0687 60.9282 21.6495 60.775C22.9699 60.4266 24.2987 60.6134 25.6221 60.5782C26.9371 60.543 28.2547 60.5372 29.5694 60.5807C30.5763 60.6147 31.5116 60.9316 32.3296 61.5599C32.2339 61.6643 32.1598 61.745 32.0786 61.8337C32.0815 62.2537 32.4154 62.3349 32.7542 62.4604C32.6904 62.542 32.6328 62.6157 32.5276 62.7499C32.6916 62.8609 32.8697 62.9814 33.006 63.0738C32.8813 63.3041 32.7989 63.4553 32.685 63.6657C32.538 63.7403 32.3205 63.8513 32.1051 63.961C31.2655 63.4818 30.3543 63.8703 29.4497 63.6951Z" fill="black"/>
<path fill-rule="evenodd" clip-rule="evenodd" d="M46.836 1.95079C46.7868 2.28298 46.7557 2.49091 46.7234 2.71044C46.3042 2.38695 45.9426 3.01032 45.4402 2.53937C45.465 2.61766 45.4244 2.48967 45.3714 2.3215H44.6201C44.5091 2.45736 44.3753 2.62097 44.1847 2.85375C44.0949 2.59777 44.0489 2.4673 43.9818 2.27718C43.7958 2.28712 43.5916 2.29789 43.3244 2.31239C43.462 2.46481 43.5328 2.54434 43.6579 2.68351C43.329 2.71209 43.0473 2.73653 42.7806 2.76014C42.7524 2.80902 42.7185 2.84257 42.7251 2.86079C42.7375 2.89268 42.7781 2.91257 42.8001 2.9428C42.8378 2.99292 42.8701 3.04677 42.916 3.11635C41.9485 3.42949 41.048 2.69055 40.01 3.03558C40.0672 3.1176 40.1289 3.20623 40.2473 3.37647C39.9388 3.37647 39.578 3.48541 39.4144 3.35245C39.129 3.1205 38.8155 3.12091 38.5781 3.20251C37.601 3.53925 36.5311 3.39718 35.571 3.84038C35.3295 3.95221 34.9638 3.79481 34.6055 3.75547C34.3934 4.11002 34.154 4.2376 33.4122 4.2757C33.5978 4.06032 33.7386 3.89629 33.9312 3.67263H33.2892C33.2457 3.43446 33.208 3.22777 33.167 3.0041C32.962 2.97221 32.7549 2.94032 32.5449 2.9076C32.6422 2.49008 32.73 2.11357 32.8327 1.67245C33.3662 1.28268 34.0753 1.09132 34.7497 0.808424C35.1957 0.62162 35.7396 0.949667 36.0776 0.473336C36.836 0.397951 37.5998 0.355702 38.3524 0.241383C40.9457 -0.153765 43.556 0.112566 46.1551 0.000731975C46.5879 -0.0179071 47.0088 0.328365 47.4354 0.021442C47.8156 0.489489 48.4055 0.0993119 48.8685 0.386353C49.2355 0.61375 49.7321 0.633217 50.2689 0.769489C50.0084 0.891679 49.8556 0.963336 49.6696 1.05032C49.805 1.52292 50.3352 1.45831 50.5808 1.74908C50.4487 1.80292 50.3199 1.85552 50.1915 1.90771C50.2714 2.05186 50.3505 2.19476 50.4317 2.34055C50.0258 2.60399 49.6369 2.69428 49.2044 2.76511C48.7869 2.83345 48.422 2.38736 48.0273 2.71913C47.6748 2.49215 47.3223 2.26434 46.836 1.95079Z" fill="black"/>
<path fill-rule="evenodd" clip-rule="evenodd" d="M38.0074 13.5509C37.84 13.8209 37.7663 13.9394 37.688 14.0657C37.956 14.2467 38.1846 14.4012 38.417 14.5582C38.3549 14.6332 38.3114 14.6862 38.2335 14.7811C38.2857 14.8962 38.3652 15.0312 38.4062 15.1774C38.4352 15.2806 38.412 15.3982 38.412 15.5751C38.0919 15.7474 37.7534 15.9292 37.5592 16.034C36.9888 16.1293 36.7672 15.455 36.3004 15.8016C35.9032 15.3767 35.5321 15.8186 35.1485 15.8277C34.0961 15.8534 33.0415 15.8613 31.9903 15.8232C31.6108 15.8095 31.2368 15.6447 30.8384 15.5432C30.7729 15.7341 30.7282 15.8654 30.683 15.9963C30.3819 16.3194 30.1135 15.7341 29.732 15.9922C29.4715 16.1678 29.008 16.0879 28.6423 16.051C28.3072 16.0174 27.9808 15.889 27.5132 15.766C27.649 16.0075 27.7049 16.1073 27.8329 16.3343C26.9772 16.1413 26.1918 16.5045 25.3916 16.0895C25.0739 15.9247 24.5997 16.0622 24.1888 16.227C24.5616 16.266 24.9343 16.3049 25.3071 16.3438C25.3055 16.3799 25.3042 16.4163 25.303 16.4524H23.7646C23.6706 16.3496 23.4805 16.1417 23.3281 15.9752C23.4051 15.7867 23.4668 15.6356 23.5443 15.4446C23.3624 15.4073 23.2593 15.3862 23.1048 15.3543C23.0746 15.1779 23.039 14.9712 23.0042 14.769C22.8637 14.7193 22.7333 14.6734 22.6032 14.6278V14.0653C23.3467 14.0425 24.1047 14.0189 24.8627 13.9953C24.8631 13.9427 24.8631 13.8905 24.8631 13.8383H22.9458C22.6591 13.4183 23.0592 13.1495 23.1471 13.1644C23.6184 13.2456 23.9692 12.9047 24.4079 12.8923C26.4834 12.8331 28.5578 12.7448 30.6325 12.6765C31.1962 12.6579 31.762 12.65 32.3245 12.6786C33.4975 12.7374 34.6768 12.766 35.8386 12.9209C36.5527 13.0157 37.2394 13.3198 38.0074 13.5509Z" fill="black"/>
<path fill-rule="evenodd" clip-rule="evenodd" d="M7.43314 3.94091C6.94272 4.16996 6.57036 4.34434 6.19592 4.51913C6.06296 4.38576 5.93 4.2528 5.74568 4.06848C5.69639 4.21056 5.65704 4.32322 5.59864 4.49138H4.57764C4.5474 4.37624 4.52089 4.27434 4.47409 4.09665C4.26036 4.16209 4.16841 4.36961 3.97622 4.51168H3.23314C3.1913 4.39363 3.1445 4.26274 3.05835 4.02044C2.98793 4.2089 2.94817 4.31369 2.90012 4.44251C2.33267 4.68564 1.71054 4.80866 1.04409 4.78008C0.739234 4.76766 0.427754 4.90931 0.11379 4.98263C0.0433757 4.91801 -0.0361509 4.84553 -0.111536 4.77635C-0.198104 4.85257 -0.280115 4.92588 -0.394435 5.02736C-0.666979 4.88695 -0.945737 4.74322 -1.15946 4.63304C-1.50201 4.69517 -1.80769 4.75067 -2.15728 4.81363C-2.20698 4.65209 -2.24674 4.52369 -2.29479 4.36712C-2.92769 4.3257 -3.36343 3.89369 -3.8468 3.53375C-3.75071 3.43766 -3.67118 3.35813 -3.51171 3.19825H-2.5197C-2.51432 3.156 -2.50893 3.11375 -2.50396 3.07109C-2.87219 2.9634 -3.24083 2.85529 -3.69355 2.72274C-3.50757 2.52393 -3.41065 2.42121 -3.27893 2.28079C-2.33828 2.28079 -1.36491 2.2957 -0.39195 2.27458C0.109234 2.2634 0.633612 2.40837 1.1 2.06085C1.34314 1.87943 1.60409 2.39221 1.83562 2.12629C2.09864 1.82434 2.27633 2.44813 2.5758 2.13209C2.69882 2.00203 3.10888 2.16647 3.38681 2.15612C3.7542 2.14328 4.11994 2.06085 4.48651 2.05961C6.9332 2.0505 9.38154 2.10269 11.8262 2.03393C12.9979 2.00162 14.1639 1.75434 15.3465 1.8289C15.841 1.4818 16.3832 1.64085 16.9403 1.5957C16.7394 2.26712 16.1628 1.94073 15.5772 2.22322C16.2461 2.26008 16.6744 2.28411 17.292 2.31848C17.012 2.47091 16.8637 2.55209 16.652 2.66766C16.773 2.82754 16.886 2.9605 16.9792 3.10629C17.0654 3.24132 17.13 3.38961 17.2882 3.69487C16.9722 3.53334 16.8334 3.46209 16.6176 3.35109C16.5452 3.52712 16.4843 3.67499 16.4196 3.83156C16.3062 3.76612 16.1935 3.7015 16.0332 3.60872C15.9375 3.67458 15.822 3.75452 15.6977 3.84026C15.6347 3.78351 15.556 3.71144 15.4769 3.63979C15.3456 3.77109 15.2123 3.90405 15.0631 4.05316C14.8324 3.93428 14.5955 3.81209 14.3362 3.67872C14.2811 3.79304 14.2111 3.93677 14.1424 4.07842C14.0608 4.08215 13.987 4.08547 13.8802 4.09002C13.8383 3.96949 13.7936 3.84109 13.736 3.67458H13.1794C13.1487 3.7628 13.1031 3.89411 13.0282 4.11198C12.7121 4.03825 12.3866 3.96245 12.0577 3.88541C12.0043 4.01919 11.9529 4.14884 11.8709 4.35387C11.7002 4.09458 11.5553 3.87422 11.4149 3.6605C11.2757 3.87795 11.1274 4.10949 11.0094 4.29381C10.4166 4.41186 10.2058 4.10493 10.0886 3.57476C9.9113 3.82203 9.77835 4.00718 9.58947 4.27061H8.6629C8.63764 4.19482 8.59414 4.06558 8.53988 3.90529H8.10415C8.21556 4.037 8.28018 4.11446 8.34687 4.19274C8.18036 4.44458 7.90574 4.35925 7.43314 3.94091Z" fill="black"/>
<path fill-rule="evenodd" clip-rule="evenodd" d="M62.2159 76.5758C62.0966 76.8226 61.9777 77.0687 61.8087 77.4199C61.7313 77.19 61.6977 77.091 61.6314 76.8955C61.4119 76.7663 60.9165 76.8951 60.7964 76.4909C60.7355 76.2858 60.8594 76.0257 60.9057 75.7548C60.709 75.6654 60.424 75.5357 60.0612 75.3709C60.1179 74.7943 60.1768 74.1904 60.2455 73.4896C60.2613 73.5074 60.1884 73.4249 60.0235 73.2386C60.301 73.2895 60.4741 73.3218 60.7198 73.3665C60.743 73.1681 60.7744 72.906 60.82 72.5203C61.3622 72.2867 61.9578 71.9931 62.5799 71.7719C63.2153 71.5465 63.9514 71.5693 64.537 71.3183C65.211 71.0288 65.9636 71.5267 66.5434 70.972C66.618 71.0408 66.6988 71.1154 66.7791 71.1895C67.5843 70.7728 68.443 71.04 69.4747 70.9323C69.29 71.1402 69.2171 71.2222 69.1455 71.303C69.2155 71.3817 69.285 71.46 69.4408 71.6356C68.7437 71.5913 68.1282 71.8166 67.5512 71.4094C66.9055 71.7346 66.2311 71.928 65.4872 71.8725C64.6153 71.8071 63.8122 72.0854 62.8865 72.457C63.1901 72.6852 63.3959 72.8401 63.625 73.0124C63.6726 72.8732 63.7173 72.7419 63.7617 72.611C63.8275 72.5887 63.8921 72.5572 63.9601 72.546C64.4546 72.4623 64.9508 72.6537 65.4653 72.3488C65.8327 72.1314 66.415 72.4851 66.8239 72.0949C66.8433 72.0763 66.8968 72.0949 66.9344 72.0925C67.9948 72.0171 69.0543 71.9255 70.1159 71.8762C70.4274 71.8622 70.7902 71.73 71.0537 72.0709C71.0976 72.1277 71.2844 72.1277 71.3743 72.0862C72.4102 71.6161 73.5008 71.9819 74.5582 71.8684C74.6701 71.856 74.784 71.8667 74.9012 71.8667C75.0308 71.9984 75.1626 72.1322 75.3315 72.3041H76.6615C76.8305 72.4545 76.9407 72.5531 77.0778 72.6757C76.9163 72.7316 76.7854 72.7771 76.5862 72.8463C76.8252 73.0012 77.0343 73.1375 77.3371 73.3346C76.9254 73.6325 76.563 73.8942 76.2237 74.1399C75.6095 73.9502 75.1079 73.2883 74.4302 73.8872C74.2571 73.4759 74.0952 73.0468 73.4701 73.2758C73.456 73.362 73.4399 73.4643 73.4229 73.5699C73.5815 73.647 73.7269 73.717 73.8901 73.7952C73.7973 73.84 73.7369 73.8764 73.6714 73.8988C73.2659 74.038 72.9486 73.3641 72.4615 73.8193C72.1588 74.1013 71.6555 73.9125 71.2239 74.0757C70.6747 74.2828 69.9888 74.1258 69.1028 74.1258C69.5128 73.9344 69.6632 73.864 69.9594 73.7257H68.7312C68.7992 73.9042 68.8638 74.0752 68.9545 74.3151H67.5943C67.3056 74.4625 67.1548 74.54 66.9021 74.6692C67.0351 74.4725 67.4775 74.0392 67.5491 74.0003C67.1155 73.6714 66.8313 74.1502 66.42 74.1887C66.5016 74.2915 66.56 74.366 66.6814 74.5201C66.1827 74.6187 65.7196 74.7231 65.252 74.8001C64.8759 74.8614 64.5942 75.0316 64.3647 75.4086C64.1618 75.3493 63.9489 75.2872 63.6991 75.2147C63.1826 75.6123 62.669 76.0083 62.1554 76.4043C62.1753 76.4619 62.1956 76.5186 62.2159 76.5758Z" fill="black"/>
<path fill-rule="evenodd" clip-rule="evenodd" d="M13.4291 47.8143C13.5571 47.8777 13.6847 47.9415 13.8123 48.0052C13.7945 48.0512 13.7771 48.098 13.7593 48.1444C13.3923 48.1444 12.9367 48.009 12.679 48.1767C12.3183 48.4124 12.1058 48.0893 11.8291 48.1436C11.4791 48.2115 11.137 48.079 10.7588 48.2977C10.4121 48.4981 9.90595 48.4849 9.58453 48.1871C9.2308 48.2538 8.91767 48.3006 8.61075 48.3735C8.33365 48.4393 8.06773 48.8411 7.78607 48.3826C7.5653 48.7533 7.32258 48.5611 7.08152 48.4095C6.82388 48.7492 6.45814 48.557 6.14211 48.5893C5.8443 48.6199 5.53737 48.5681 5.24039 48.6025C4.81708 48.6518 4.37595 48.6862 3.98412 48.8365C3.4324 49.0478 2.86329 49.0515 2.28797 49.1265C2.91755 49.3539 3.6072 49.392 4.17921 49.2126C4.58595 49.0851 4.96039 49.0996 5.3485 49.0499C5.91968 48.9774 6.45897 48.7723 7.06163 48.7968C7.59015 48.8183 8.17832 49.0445 8.67288 48.6257C8.91601 48.8316 9.08915 48.8626 9.40146 48.6311C9.6011 48.4828 10.0671 48.5715 10.35 48.697C10.5815 48.7993 10.828 48.5168 11.0342 48.808C11.0976 48.897 11.4203 48.8838 11.5744 48.8117C12.3866 48.4302 13.2026 48.5648 14.0306 48.7164C14.1619 48.7405 14.3205 48.5909 14.4589 48.6038C15.3771 48.6899 16.3103 48.4062 17.2228 48.7371C17.3699 48.7902 17.5857 48.6112 17.7725 48.6029C18.2608 48.5822 18.7525 48.6232 19.2396 48.5897C19.9396 48.5412 20.601 48.6584 21.3971 49.0051C20.8873 49.0325 20.5302 49.0519 20.1728 49.0714L20.1363 49.1795C20.2328 49.211 20.3273 49.2507 20.4258 49.2719C20.529 49.2934 20.6354 49.2971 20.7713 49.3121C20.6553 49.5461 20.5555 49.7474 20.4552 49.9487C20.3625 49.8658 20.2809 49.7925 20.1628 49.6873C20.0236 49.7619 19.877 49.8406 19.6368 49.9694C19.691 49.6434 19.7341 49.3862 19.7884 49.0635C19.7631 49.0383 19.6567 48.9318 19.5655 48.8407C19.0685 48.9405 18.5847 49.0383 18.0748 49.1406C18.1809 49.2549 18.2761 49.3572 18.3656 49.4533C18.5441 49.3825 18.716 49.3137 18.8755 49.2503C19.2023 49.7979 18.6236 49.6703 18.489 49.8617C18.5752 50.0402 18.646 50.1864 18.7661 50.4345C18.5698 50.3803 18.3515 50.3637 18.342 50.3103C18.2505 49.7954 17.9568 49.6413 17.4767 49.7615C17.4258 49.8932 17.3757 50.0224 17.2671 50.3012C17.1052 49.9276 16.9909 49.6637 16.8492 49.3373C17.1818 49.2889 17.3893 49.2586 17.5964 49.2288C17.5985 49.1828 17.6006 49.1364 17.6031 49.0909C17.2692 49.0718 16.9349 49.0528 16.5241 49.03C16.5651 49.1538 16.5899 49.2296 16.6438 49.3928C16.5907 49.5154 16.5017 49.72 16.3977 49.9603C15.8531 49.8923 15.2761 50.0854 14.6237 49.7292C14.7293 49.993 14.7985 50.1649 14.8801 50.3695H14.2919C14.1793 50.0415 14.0546 49.6786 13.9229 49.2947H13.5882C13.6739 49.4955 13.7464 49.6658 13.8222 49.8439C13.3968 49.9507 13.0253 50.0444 12.5635 50.1603C12.4425 50.0568 12.2582 49.8994 12.0718 49.7395C11.9326 50.0348 11.7993 50.3186 11.6506 50.635C11.5715 50.4731 11.5019 50.3306 11.4306 50.1852C11.1063 50.8069 10.5993 50.9473 9.94199 50.8028C10.0505 50.6184 10.1354 50.4739 10.2808 50.2262C9.89891 50.2047 9.6214 50.1881 9.30081 50.1699V50.8272C8.38211 50.9419 7.49282 51.0525 6.59731 51.1644C6.55879 51.2778 6.51365 51.4092 6.44737 51.603C5.80039 51.1221 5.0801 51.3731 4.39045 51.2944C4.32252 51.1544 4.25252 51.0115 4.1614 50.8251C4.09512 51.0053 4.04708 51.1358 3.99862 51.2671C3.8524 51.1946 3.7066 51.1221 3.47258 51.0057C3.42826 51.2654 3.39388 51.4638 3.38063 51.5421C3.00453 51.9634 2.69223 52.3129 2.35507 52.6907C2.28797 52.5113 2.23909 52.3809 2.18359 52.2318C2.03116 52.4558 1.88329 52.6737 1.72962 52.9003C1.38708 52.4248 1.11702 51.9687 1.64015 51.4883C1.49187 51.3325 1.38998 51.2252 1.28187 51.1122C1.16879 51.1772 1.05654 51.2418 0.875539 51.3466C0.762876 51.2497 0.629918 51.1354 0.450569 50.9813C0.507314 50.2974 0.295657 49.5577 0.731397 48.8995C1.59708 48.32 2.63424 48.3983 3.57862 48.1299C4.59838 47.84 5.62394 47.946 6.64992 47.9199C6.90796 47.9133 7.13495 47.9195 7.36483 47.7124C7.4895 47.5997 7.81051 47.6494 8.0201 47.7074C8.16175 47.7464 8.25205 48.0144 8.42353 47.7451C8.92471 47.9158 9.39939 47.6134 9.90968 47.6755C10.5032 47.7476 11.1121 47.6921 11.7139 47.6921H13.4076C13.4147 47.7331 13.4221 47.7733 13.4291 47.8143Z" fill="black"/>
<path fill-rule="evenodd" clip-rule="evenodd" d="M33.4184 32.8957V32.3784C33.1918 32.3436 32.9847 32.3121 32.6848 32.2662C32.8265 32.0255 32.9296 31.8503 32.9615 31.7965C33.6234 31.2568 34.2232 32.4451 34.654 31.7169C35.1191 31.7815 35.465 31.8694 35.8108 31.871C38.6692 31.8822 41.5276 31.8507 44.3856 31.8905C45.5189 31.9066 46.6505 32.0711 47.8591 32.1746L48.1035 32.419C48.0604 32.4641 48.0177 32.5491 47.9742 32.5495C47.0717 32.5573 46.1692 32.5536 45.2662 32.5565C45.0914 32.5573 44.9162 32.5752 44.7406 32.6534C45.1627 32.8336 45.6025 32.7678 46.0337 32.7785C46.4848 32.7897 46.9404 32.7429 47.3865 32.7922C47.7908 32.8373 48.1838 32.9778 48.7061 33.107C48.439 33.2023 48.3081 33.2491 48.0679 33.3348C48.277 33.4226 48.4092 33.4785 48.5645 33.544C48.5707 33.679 48.5773 33.8244 48.5844 33.9826C48.3847 34.1085 48.1979 34.2821 47.9784 34.3492C47.7721 34.4121 47.5298 34.3807 47.3061 34.3587C46.8509 34.3144 46.3605 34.5124 45.9467 34.1702C45.5288 34.5563 45.0226 34.3165 44.5587 34.3541C44.0733 34.3931 43.5816 34.3624 43.0187 34.3624C42.9177 34.4995 42.7851 34.6797 42.6385 34.8789C42.3511 34.7936 42.1195 34.7244 41.7513 34.6147C41.7277 34.63 41.5769 34.8069 41.4369 34.7986C41.009 34.7733 40.5803 34.9146 40.1454 34.6544C39.7022 34.3898 39.182 34.7033 38.6651 34.625C37.7899 34.4921 36.8799 34.5886 36.0047 34.5886C35.9392 34.7737 35.8932 34.9046 35.8386 35.0595C35.7197 35.0272 35.5925 35.0297 35.5254 34.9676C35.2558 34.717 35.0218 34.3914 34.567 34.6979C34.7269 34.7737 34.8739 34.8437 35.059 34.932C34.4771 35.1966 33.9892 34.9804 33.4681 34.746C33.4536 34.5861 33.4379 34.408 33.4221 34.2303C33.2892 34.0969 33.1562 33.964 33.0054 33.8136C33.0663 33.7395 33.128 33.6637 33.2254 33.5448C32.9967 33.3994 32.7681 33.2536 32.486 33.0743C32.6037 32.9011 32.7217 32.7272 32.8323 32.5644C33.0042 32.6617 33.1508 32.7446 33.4184 32.8957Z" fill="black"/>
<path fill-rule="evenodd" clip-rule="evenodd" d="M14.8764 36.0961C14.7468 36.1454 14.6167 36.1947 14.4229 36.2684C14.5579 36.415 14.6664 36.5323 14.7745 36.6499C14.8884 36.536 14.9415 36.483 15.0206 36.4039C15.1444 36.6424 15.2637 36.8723 15.3743 37.0848C15.2674 37.294 15.1726 37.4795 15.0661 37.6887C14.7675 37.7778 14.432 37.9633 14.0977 37.9608C13.22 37.9546 12.3995 38.1232 11.5678 38.4036C11.1113 38.5577 10.5518 38.3556 10.0903 38.6554C9.19939 38.5101 8.36146 38.9483 7.47507 38.8903C7.25803 38.8762 6.98838 39.0779 6.82311 39.0034C6.51246 38.8625 6.34596 39.1972 6.05933 39.1243C5.83442 39.0667 5.52915 39.0063 5.35146 39.295C4.40542 39.2602 3.55093 39.703 2.62353 39.8123C1.83738 39.9047 1.07897 40.2352 0.40631 40.432C0.190097 40.7347 0.031458 40.9576 -0.142092 41.2007C-0.289134 41.1133 -0.412566 41.0818 -0.461441 41.004C-0.663986 40.6801 -0.843335 40.3429 -1.0347 40.0045H-1.57523C-1.53712 39.7274 -1.50191 39.4698 -1.45304 39.1123C-1.446 39.121 -1.53381 39.015 -1.5976 38.9379C-1.3673 38.1928 -0.700435 38.0979 -0.197181 38.0126C0.68134 37.8631 1.51844 37.557 2.4272 37.4841C3.4159 37.4037 4.40832 37.1867 5.39536 37.0247C5.97193 36.9303 6.54104 36.8462 7.11471 36.8636C7.43572 36.8736 7.6569 36.6855 7.92696 36.6362C8.25459 36.5762 8.60169 36.6225 8.9401 36.6217C9.23998 36.6205 9.72459 36.7265 9.80412 36.5927C10.017 36.2353 10.3384 36.7721 10.49 36.4328C10.512 36.3836 10.6951 36.4059 10.8036 36.396C11.3404 36.3475 11.866 36.4432 12.4169 36.2025C12.8849 35.9979 13.486 36.2792 14.0141 35.9652C14.2294 35.8372 14.5844 35.9441 14.876 35.9441C14.8764 35.9946 14.8764 36.0452 14.8764 36.0961Z" fill="black"/>
<path fill-rule="evenodd" clip-rule="evenodd" d="M67.2431 61.2228H66.469V60.4801C66.3294 60.3484 66.2316 60.2287 66.1078 60.1475C66.0253 60.0933 65.9065 60.0949 65.7776 60.0655V58.6626C66.1492 57.7775 66.9461 57.2249 67.7919 56.732C68.8796 56.0983 70.0394 55.5826 71.236 55.2426C72.1116 54.994 73.0162 54.7725 73.9445 54.6498C74.7087 54.5492 75.4861 54.5931 76.2221 54.4382C76.8716 54.3011 77.4896 54.2257 78.1544 54.2617V54.7049H76.8414C76.8397 54.758 76.8385 54.811 76.8368 54.864H78.3279C78.2575 55.1767 78.2575 55.1767 78.1718 55.2699C78.3279 55.3445 78.482 55.4178 78.7165 55.53C78.4837 55.8063 78.277 56.0515 78.1697 56.1787C77.3185 56.44 76.5556 56.4081 75.8436 56.6819C75.3755 56.8625 74.8047 56.5345 74.3756 56.9553C72.7445 57.1582 71.3134 57.9096 69.865 58.608C69.4868 58.7898 69.1463 59.0511 68.7698 59.2371C68.0437 59.595 67.5844 60.1277 67.4987 60.9565C67.4895 61.0439 67.3483 61.1172 67.2431 61.2228Z" fill="black"/>
<path fill-rule="evenodd" clip-rule="evenodd" d="M85.5999 93.3299C85.6173 93.4919 85.6247 93.5635 85.6405 93.7155C85.0548 93.8845 84.4186 93.6998 83.8279 93.9607C84.1071 93.9765 84.3863 93.9984 84.6659 94.0059C84.962 94.0134 85.2582 94.0076 85.5241 94.0076C85.6546 94.1455 85.7527 94.249 85.8708 94.3741C85.7163 94.4292 85.5854 94.4764 85.3472 94.5618C85.5556 94.65 85.6881 94.7059 85.9035 94.7974C85.826 95.0468 85.7461 95.3044 85.6641 95.5678C84.7197 95.6842 83.8607 95.7899 82.954 95.9017C82.9444 95.9485 82.9233 96.0516 82.884 96.2447C82.4283 96.1788 81.9533 96.0806 81.4736 96.0487C80.9488 96.0139 80.4203 96.0409 79.8814 96.0409C79.7265 96.1879 79.5658 96.3416 79.4059 96.494C79.0137 96.5205 78.6608 96.3084 78.2225 96.4555C77.9227 96.5561 77.5047 96.3051 77.0678 96.3905C77.2057 96.4621 77.344 96.5346 77.6182 96.6779H76.0844C75.8529 96.8933 75.6702 97.0639 75.4329 97.2847C75.1943 96.9944 75.0092 96.7682 74.8493 96.5739C74.7499 96.2948 74.6559 96.0318 74.561 95.7671C74.6273 95.6598 74.6944 95.5509 74.7934 95.3906H74.0093C73.7223 94.9909 73.9161 94.737 74.187 94.4951C74.4583 94.4644 74.7358 94.4338 75.0133 94.4031L75.0117 94.2743C74.73 94.2519 74.4483 94.2292 74.1282 94.2031C74.1282 94.0788 74.0847 93.938 74.1352 93.8812C74.491 93.4823 74.935 93.3196 75.483 93.322C78.8314 93.3378 82.1798 93.3299 85.5999 93.3299Z" fill="black"/>
<path fill-rule="evenodd" clip-rule="evenodd" d="M34.3026 51.0219C34.3652 50.5737 34.4144 50.2237 34.4869 49.7068C34.5321 49.6729 34.733 49.5204 35.0573 49.2744C36.6996 48.8366 38.5602 49.1178 40.4042 49.052C40.7973 49.0383 41.1676 49.0822 41.564 49.24C41.9533 49.3949 42.4628 49.216 42.9006 49.2914C43.2668 49.3552 43.5965 49.6029 43.9589 49.718C44.3275 49.8348 44.7438 49.8278 45.088 49.9868C45.4608 50.1591 45.7743 50.4603 46.1239 50.7121C46.0154 50.8206 45.9624 50.8736 45.9334 50.9026C46.1376 51.3102 46.336 51.7049 46.5381 52.1084C46.3592 52.2823 46.172 52.465 45.9255 52.7056C45.0342 52.4459 44.038 52.3648 43.1715 51.7733C42.7846 51.9153 42.3783 52.2148 41.9107 51.7898C41.8208 51.7087 41.5064 51.8296 41.3192 51.9116C41.0102 52.0479 40.753 52.0553 40.5492 51.7186C40.0389 51.9477 39.5911 52.0392 39.0046 51.8458C38.3999 51.6465 37.6784 51.8019 36.9875 51.8019C36.5911 52.0897 36.1603 52.4033 35.703 52.7359C35.3447 52.4049 34.9376 52.2119 35.0034 51.6445C35.0233 51.4775 34.8278 51.2696 34.6965 51.1089C34.6452 51.0464 34.4994 51.0613 34.3026 51.0219Z" fill="black"/>
<path fill-rule="evenodd" clip-rule="evenodd" d="M68.4417 43.0469C68.3522 43.177 68.2727 43.2921 68.138 43.488C68.3501 43.5754 68.4972 43.6359 68.6653 43.7051V44.7025C68.4251 44.8516 68.1844 45.0015 67.9318 45.1589C67.3635 44.9734 66.7824 44.7845 66.1097 44.5654C65.9047 44.6341 65.6185 44.9941 65.2449 44.6072C65.1653 44.5248 64.9731 44.5376 64.8319 44.5314C62.4622 44.432 60.0926 44.3363 57.6418 44.2365C57.2557 43.633 57.0917 42.793 56.1473 42.1531C56.8436 42.0773 57.2168 42.0371 57.59 41.9965C57.5933 41.9596 57.5966 41.9228 57.6004 41.8855C57.3088 41.8432 57.0167 41.8006 56.6365 41.7451C56.7749 41.5127 56.8788 41.3375 57.0114 41.1151C57.3908 41.2435 57.8124 40.954 58.1604 41.3313C58.215 41.3909 58.3704 41.3615 58.4793 41.3657C59.3901 41.3992 60.2968 41.4473 61.2072 41.5363C62.1831 41.6312 63.1846 41.6941 64.1435 41.8544C65.6098 42.0992 67.1237 42.2823 68.4417 43.0469Z" fill="black"/>
<path fill-rule="evenodd" clip-rule="evenodd" d="M30.1703 41.7817C30.0361 41.9577 29.901 42.135 29.7996 42.2675H28.1651C27.3446 41.7688 27.4423 40.7565 26.7104 40.0238H27.746C27.7538 39.9716 27.7617 39.9194 27.7691 39.8668C27.5915 39.8316 27.4138 39.7964 27.1536 39.745C27.1408 39.5872 27.1247 39.3843 27.1023 39.1072C28.3871 39.1072 29.6372 38.9717 30.8388 39.1544C31.6436 39.277 32.4405 39.2331 33.2279 39.3478C34.0604 39.4692 34.8768 39.7048 35.699 39.897C36.4044 40.0623 37.1052 40.2433 37.8098 40.5888C37.705 40.7685 37.635 40.8886 37.5625 41.0129C37.7572 41.1463 37.9763 41.2966 38.1991 41.449C38.1076 41.5514 38.0368 41.6313 37.9771 41.6976C38.062 41.8135 38.1441 41.927 38.2725 42.1027C38.0082 42.3015 37.7733 42.4779 37.4101 42.7517C37.1483 42.6701 36.7163 42.5351 36.2843 42.4005C35.332 42.1147 34.2456 42.5877 33.3861 41.8881C33.1712 41.9436 32.9694 42.0525 32.7835 42.0306C32.5043 41.997 32.2413 41.577 31.9604 42.0318C31.714 41.6404 31.4924 41.9838 31.2381 42.0144C30.9109 42.0534 30.5575 41.8765 30.1703 41.7817Z" fill="black"/>
<path fill-rule="evenodd" clip-rule="evenodd" d="M7.24626 67.4885C7.09632 67.5415 6.96544 67.5879 6.75212 67.6637C7.59088 67.8687 7.4662 68.601 7.72342 69.1092C7.5068 69.4393 7.31502 69.7318 7.09218 70.0702C6.69662 70.013 6.40875 69.7641 6.21035 69.395C6.12875 69.4671 6.04674 69.5404 5.99703 69.5851C5.58904 69.4878 5.21171 69.3975 4.74656 69.2869C4.6662 69.1498 4.54029 68.9344 4.37378 68.6503C3.87259 68.8164 3.34159 68.9812 2.81845 69.1693C2.32845 69.3449 1.84757 69.545 1.36212 69.7347V69.9583C1.51455 70.0317 1.66697 70.105 1.84591 70.1907C1.7962 70.3054 1.7378 70.4877 1.71585 70.4831C1.30289 70.4015 1.43875 70.8422 1.24532 70.964C1.19396 70.9102 1.14218 70.8563 1.06307 70.7735C0.932181 70.8402 0.793838 70.9114 0.577625 71.022C0.505139 70.8464 0.444252 70.6989 0.370938 70.5208C0.28934 70.5859 0.214784 70.6451 0.0540743 70.7727C-0.0817837 70.445 -0.156754 70.0996 -0.349358 69.8436C-0.552316 69.574 -0.818648 69.3673 -0.649239 68.9903C-0.940009 68.9386 -1.14711 68.9017 -1.36042 68.864C-1.09865 68.1073 -1.09865 68.1073 -1.39563 67.4445C-0.960304 67.1906 -0.527878 66.7541 -0.0631447 66.7164C0.482772 66.6721 1.01088 66.2044 1.66159 66.5635C1.54354 66.7512 1.45035 66.8986 1.33768 67.0776H0.36224C0.207743 67.2718 0.0772696 67.4363 -0.0465766 67.592C0.0474471 67.691 0.0909382 67.737 0.134429 67.7825C0.187447 67.7295 0.236737 67.6351 0.294725 67.6293C1.32277 67.529 2.35165 67.4321 3.38177 67.3584C3.49899 67.3497 3.62573 67.4818 3.72514 67.5365C3.90822 67.4421 4.09544 67.346 4.28887 67.2466C3.58762 66.7723 2.85117 66.7793 2.06419 67.073C2.06419 66.8858 2.06419 66.7085 2.06419 66.5312C2.09029 66.5047 2.1168 66.455 2.14372 66.4546C3.04585 66.448 4.0068 66.2521 4.83437 66.4998C5.63419 66.7396 6.61543 66.7064 7.24626 67.4885Z" fill="black"/>
<path fill-rule="evenodd" clip-rule="evenodd" d="M12.612 100.617C12.4567 100.527 12.1515 100.455 12.0603 100.276C11.765 99.6899 11.519 99.0735 11.3173 98.4493C11.2506 98.2443 11.3769 97.9767 11.4295 97.647C11.4477 97.6677 11.3781 97.5894 11.282 97.4809C11.5496 97.3078 11.8155 97.1359 12.0777 96.9661H20.0271C20.1397 97.0874 20.2354 97.1893 20.3767 97.3409C20.1149 97.3803 19.9078 97.4113 19.5955 97.4581C19.9794 97.6168 20.276 97.7398 20.7938 97.9535C20.3328 98.0463 20.1107 98.091 19.8883 98.1362C19.8875 98.1706 19.8867 98.2049 19.8862 98.2389C20.0859 98.2704 20.2855 98.3019 20.4868 98.3338C20.6848 98.6958 20.5423 98.9613 20.2429 99.1841C18.2883 99.1617 16.349 99.5888 14.3857 99.4306C14.3111 99.4243 14.2357 99.4297 14.1607 99.4297C13.6757 99.8017 13.1907 100.174 12.612 100.617Z" fill="black"/>
<path fill-rule="evenodd" clip-rule="evenodd" d="M77.7512 30.645C78.3224 30.5606 78.8091 30.4429 79.2983 30.4292C79.7497 30.416 80.1735 30.2433 80.6796 30.481C81.1038 30.6798 81.6948 30.5216 82.2242 30.4127C81.8518 30.2743 81.4794 30.136 81.0528 29.9774C81.5055 29.7425 81.8327 29.8862 82.213 30.0465C82.5137 30.1733 82.9544 29.9633 83.1246 30.4761C82.9113 30.5067 82.7042 30.5365 82.4462 30.5734C82.5464 30.691 82.5961 30.7892 82.6756 30.8356C82.9171 30.976 83.1702 31.0961 83.4208 31.2253C83.521 31.1433 83.6047 31.075 83.6925 31.0033C83.9443 31.0849 84.0251 31.3335 84.0164 32.0231C83.0708 32.1138 82.6185 32.0007 81.578 31.4001C81.4496 31.4755 81.3001 31.5637 81.1303 31.6636C80.9882 31.5857 80.8358 31.5024 80.6374 31.3939C80.5375 31.4689 80.4257 31.5534 80.3122 31.6387C80.0177 31.5737 79.7112 31.5058 79.4051 31.4382C79.2009 31.8885 78.7838 31.0961 78.508 31.6068C78.4061 31.7957 77.931 31.7837 77.6116 31.8669C77.5449 31.8052 77.4638 31.729 77.3652 31.6375C77.3262 31.741 77.2894 31.8384 77.2123 32.0409C76.9518 32.1382 76.6076 32.2671 76.1487 32.4381V31.4631C75.8927 31.4353 75.7146 31.4159 75.4951 31.3923C75.6823 31.2713 75.8496 31.1632 75.9668 31.087C75.8078 30.7577 75.7378 30.6123 75.6255 30.3795C76.3326 30.2168 76.9949 30.0643 77.6767 29.9069C77.7496 29.984 77.8461 30.0871 77.9885 30.2391C77.7293 30.2785 77.5222 30.31 77.1767 30.363C77.453 30.4984 77.6166 30.5792 77.7512 30.645Z" fill="black"/>
<path fill-rule="evenodd" clip-rule="evenodd" d="M94.9265 61.855C94.7405 61.9429 94.6017 62.0083 94.2894 62.1558C94.796 62.1843 95.136 62.2038 95.5403 62.2266C95.4492 62.0037 95.3796 61.8331 95.2988 61.6368C95.6998 61.544 96.0589 61.4607 96.5062 61.3572C96.4453 61.539 96.3944 61.6902 96.3178 61.9172C96.3687 61.9371 96.4714 61.9764 96.6114 62.0303C96.6831 62.1698 96.7779 62.3558 96.8724 62.5397C96.3476 62.77 95.7884 63.0148 95.3618 63.2016C94.4828 63.4253 93.7327 63.6162 92.9544 63.8138C92.9072 63.6721 92.8637 63.5425 92.8202 63.4133C92.5361 63.2849 92.2524 63.1565 91.8837 62.9891C92.3294 62.8243 92.7063 62.6847 93.2282 62.4913C92.8053 62.4561 92.5249 62.4324 92.2441 62.4088C92.2114 62.3695 92.1782 62.3301 92.1455 62.2912C92.2888 62.2634 92.4321 62.2361 92.575 62.2088C93.2589 62.135 94.0156 61.5253 94.9265 61.855Z" fill="black"/>
</svg>
